HIERARCHY
ROOT pelvis
{
  OFFSET 0 100 0
  CHANNELS 6 Xposition Yposition Zposition Zrotation Xrotation Yrotation
  JOINT pelvis_right_femur
  {
    OFFSET -10.78128 -3.44521 -0.5502486
    CHANNELS 3 Zrotation Xrotation Yrotation
    JOINT right_femur_tibia
    {
      OFFSET -0.8047443 -44.0398 -0.1307829
      CHANNELS 3 Zrotation Xrotation Yrotation
      JOINT right_tibia_foot
      {
        OFFSET 3.006224 -47.83518 -5
        CHANNELS 3 Zrotation Xrotation Yrotation
        End Site
        {
          OFFSET 0 -5 15
        }
      }
    }
  }
  JOINT pelvis_left_femur
  {
    OFFSET 10.78128 -3.44521 -0.5502486
    CHANNELS 3 Zrotation Xrotation Yrotation
    JOINT left_femur_tibia
    {
      OFFSET 0.8047443 -44.0398 -0.1307829
      CHANNELS 3 Zrotation Xrotation Yrotation
      JOINT left_tibia_foot
      {
        OFFSET -4.370144 -48.10324 -4.275266
        CHANNELS 3 Zrotation Xrotation Yrotation
        End Site
        {
          OFFSET 0 -5 15
        }
      }
    }
  }
  JOINT pelvis_spine1
  {
    OFFSET 0 6.468898 -3.129235
    CHANNELS 3 Zrotation Xrotation Yrotation
    JOINT spine1
    {
      OFFSET 0 23.15396 4.99043
      CHANNELS 3 Zrotation Xrotation Yrotation
      JOINT spine2
      {
        OFFSET 0 20.79997 -5.064912
        CHANNELS 3 Zrotation Xrotation Yrotation
        JOINT neck
        {
          OFFSET 0 14.38658 9.616178
          CHANNELS 3 Zrotation Xrotation Yrotation
          End Site
          {
            OFFSET 0 20 0
          }
        }
      }
      JOINT right_manubrium
      {
        OFFSET -5.722621 16.35077 3.967754
        CHANNELS 3 Zrotation Xrotation Yrotation
        JOINT right_clavicle
        {
          OFFSET -13.16364 1.694482 -4.693211
          CHANNELS 3 Zrotation Xrotation Yrotation
          JOINT right_humerus
          {
            OFFSET -28.5034 -0.3100689 -2.792744
            CHANNELS 3 Zrotation Xrotation Yrotation
            JOINT right_radius
            {
              OFFSET -25.15693 0.02248979 -1.271978
              CHANNELS 3 Zrotation Xrotation Yrotation
              End Site
              {
                OFFSET -15 0 0
              }
            }
          }
        }
      }
      JOINT left_manubrium
      {
        OFFSET 5.722621 16.35077 3.967754
        CHANNELS 3 Zrotation Xrotation Yrotation
        JOINT left_clavicle
        {
          OFFSET 13.16364 1.694482 -4.693211
          CHANNELS 3 Zrotation Xrotation Yrotation
          JOINT left_humerus
          {
            OFFSET 29.39168 -1.063119 -2.237045
            CHANNELS 3 Zrotation Xrotation Yrotation
            JOINT left_radius
            {
              OFFSET 24.59957 -0.9528479 0.9047498
              CHANNELS 3 Zrotation Xrotation Yrotation
              End Site
              {
                OFFSET 15 -0 -0
              }
            }
          }
        }
      }
    }
  }
}
MOTION
Frames: 23
Frame Time: 0.0416666666667
0 103.5113 0 0.7214314 -0.6392459 0.1215018 3.757125 -18.43977 9.291411 -0 39.87706 -0 -5.965902 -14.92301 -3.250976 -6.846629 11.46115 -23.75037 -0 3.394989 -0 9.59469 -16.79217 27.1272 -3.77996 -3.481989 4.02407 2.478088 9.446273 -7.468317 1.465956 22.24322 6.979942 2.966951 -24.57553 9.846282 6.552231 -19.57541 11.55207 85.46598 36.37524 -18.33209 -0 0 15.53965 -7.481301 8.92378 5.317705 5.462557 -18.97171 -1.579139 -93.20227 27.15127 21.36232 0 0 -16.47987 7.877641 17.0944 5.195278
0.2962736 103.3694 1.529772 0.7277421 -0.5769536 0.2302767 3.821582 -18.38806 9.522788 -0 40.08197 -0 -5.875646 -15.30007 -3.355031 -6.865171 11.4595 -23.90306 -0 3.455843 -0 9.672661 -16.746 27.28092 -3.807808 -3.516818 4.047021 2.50221 9.385032 -7.470574 1.489202 22.23671 6.95321 2.93586 -24.58717 9.881634 6.631551 -19.5539 11.53146 85.37099 36.53262 -18.30053 -0 0 15.62209 -7.243398 8.915393 5.218928 5.438861 -18.85337 -1.484437 -93.3259 27.30235 21.48125 0 0 -16.36859 7.788589 17.10971 5.329233
0.5742885 103.1378 3.280468 0.4681374 0.2176639 0.3239763 4.61252 -20.94534 9.456217 -0 36.42238 -0 -5.335478 -15.74073 -3.419876 -6.783856 11.89602 -23.43457 -0 4.55429 -0 8.942354 -17.75928 26.61304 -3.618553 -3.193615 4.191101 2.661918 8.99064 -7.558728 1.583726 21.92104 6.939344 2.983126 -24.8003 9.981518 6.560333 -19.16291 11.289 85.32844 36.59389 -18.74171 -0 0 15.62496 -6.446178 8.744811 4.557922 5.944847 -19.00011 -1.128852 -93.1992 27.49908 20.96257 0 0 -17.22911 8.001422 16.71317 5.146556
0.8289933 102.8898 5.10049 0.2940525 0.8553506 0.4209964 5.310862 -22.32731 10.02763 -0 34.74522 -0 -4.812364 -16.72419 -3.718878 -6.76246 12.1731 -23.50452 -0 5.466879 -0 8.489052 -18.34379 26.49919 -3.543677 -3.070906 4.320343 2.806044 8.599895 -7.619987 1.703823 21.71131 6.872619 2.940861 -24.98433 10.13178 6.686271 -18.87627 11.08088 85.14642 36.96933 -19.00226 -0 0 15.79102 -5.393894 8.613625 3.950947 6.167215 -18.80248 -0.6830467 -93.53974 28.22923 21.08999 0 0 -17.54512 7.600553 16.52909 5.790418
1.075226 102.5253 7.211515 0.04258363 1.365625 0.5508771 5.816162 -24.42065 9.463283 -0 31.38639 -0 -4.682832 -15.71848 -3.522044 -6.629671 12.57855 -22.71445 -0 6.332579 -0 7.465145 -19.3271 25.44756 -3.291203 -2.75378 4.347386 2.856726 8.465282 -7.701015 1.726551 21.46797 6.941504 3.063943 -25.16784 10.12668 6.408269 -18.63079 10.94389 85.49382 36.60569 -19.57609 -0 0 15.46971 -5.430288 8.569695 3.756068 6.578374 -19.25685 -0.6389612 -93.23931 28.29085 20.56873 0 0 -18.689 7.584138 16.23123 5.883179
1.316905 102.0107 9.695668 -0.2213296 1.744281 0.7317219 6.134478 -26.53578 8.441088 -0 27.63864 -0 -4.798488 -13.79174 -3.152041 -6.446549 13.05934 -21.61364 -0 7.108724 -0 6.128996 -20.41126 24.00291 -2.968604 -2.399749 4.301874 2.843826 8.458358 -7.783048 1.71183 21.2514 7.065472 3.242572 -25.32537 10.05752 5.94622 -18.42679 10.84709 86.11285 35.89023 -20.28647 -0 0 14.88903 -6.010998 8.614112 3.807631 6.99664 -19.97239 -0.7928274 -92.72091 28.2091 19.86477 0 0 -20.18135 7.508886 15.97374 6.02635
1.556382 101.2736 12.75369 -0.5325566 2.02203 1.00257 6.206704 -29.11846 6.561081 -0 22.61614 -0 -5.308173 -10.29646 -2.459625 -6.170566 13.76277 -19.83103 -0 7.943498 -0 4.274907 -21.71648 21.77381 -2.506207 -1.957359 4.142051 2.752716 8.634533 -7.88732 1.643965 21.02486 7.268086 3.511402 -25.45635 9.883242 5.143152 -18.22222 10.7878 87.19629 34.5767 -21.27024 -0 0 13.80013 -7.461065 8.790828 4.205259 7.506569 -21.1935 -1.234985 -91.66206 27.63597 18.59686 0 0 -22.42385 7.649349 15.67035 5.860075
1.78698 100.2688 16.58254 -0.8606911 2.151935 1.409235 5.972376 -31.82138 3.995624 -0 16.8051 -0 -6.270755 -5.518496 -1.54787 -5.809487 14.7642 -17.46405 -0 8.91335 -0 1.988295 -23.01271 18.88373 -1.923932 -1.521845 3.833057 2.584701 8.957863 -8.010054 1.549713 20.82791 7.497043 3.79682 -25.51577 9.628742 4.009347 -17.99391 10.74418 88.72065 32.68949 -22.45459 -0 0 12.14924 -9.69159 9.104126 4.952477 7.99831 -22.80354 -1.917539 -90.106 26.59108 16.78667 0 0 -25.29437 7.949547 15.35325 5.45972
1.988207 98.99996 21.40459 -1.176884 2.003274 1.999209 5.435225 -34.06862 0.9474424 -0 10.9076 -0 -7.796014 0.1424537 -0.5491348 -5.349291 16.20929 -14.54151 -0 10.25946 -0 -0.5225997 -23.84857 15.4936 -1.209694 -1.240192 3.291864 2.346816 9.401956 -8.159379 1.446581 20.73075 7.665055 3.968692 -25.42582 9.301506 2.478451 -17.71137 10.69098 90.72993 30.11057 -23.73979 -0 0 9.787689 -12.65716 9.507067 6.084659 8.297465 -24.65834 -2.831801 -88.01184 24.8829 14.32942 0 0 -28.59126 8.511963 15.01068 4.657988
2.125038 97.67078 27.27968 -1.487012 1.475476 2.748914 5.192999 -34.42409 -1.206104 -0 7.399277 -0 -9.52903 4.406264 -0.1103871 -4.781352 17.94308 -11.80233 -0 12.83668 -0 -2.637787 -23.18237 12.50575 -0.3760569 -1.36448 2.514994 2.137078 9.736548 -8.333736 1.381029 20.83379 7.59587 3.766905 -25.14316 9.003689 0.8085861 -17.33008 10.56755 92.85396 27.25532 -24.76528 -0 0 7.084711 -15.32139 9.783935 7.248093 8.043069 -25.96382 -3.698264 -85.96949 22.95721 11.81938 0 0 -31.04077 9.063328 14.64779 3.777336
2.20111 96.86524 33.83548 -2.022159 0.9628918 3.439813 6.404347 -31.52977 -0.2630606 -0 9.426986 -0 -10.54593 3.617379 -1.026893 -4.066425 18.57145 -10.73982 -0 19.21715 -0 -3.94668 -19.59319 10.96636 0.61847 -1.911479 1.884945 2.165875 9.638738 -8.501055 1.338624 21.01991 7.277879 3.153848 -24.9317 8.911902 0.02678286 -16.85103 10.40988 93.99363 25.89883 -25.10963 -0 0 5.457216 -15.52505 9.777765 7.595898 6.996313 -25.46323 -3.842511 -85.4803 22.33942 11.25576 0 0 -30.27809 8.817332 14.2154 3.998437
2.3467 97.14579 40.35483 -2.816545 1.160641 3.757871 8.289835 -26.39551 2.76216 -0 15.0044 -0 -10.83436 -1.504501 -2.114977 -3.486184 15.48444 -11.60944 -0 31.49149 -0 -5.037157 -13.63641 10.27628 1.604639 -2.210147 2.236321 2.3732 9.445301 -8.469638 1.18593 20.96279 7.182184 2.834926 -25.1437 8.990941 1.153775 -16.50738 10.53225 93.28825 28.04376 -24.80473 -0 0 6.091824 -13.29533 10.03252 7.130981 5.645912 -23.55025 -3.073431 -87.49749 23.72049 14.43271 0 0 -26.35333 7.5124 13.77877 6.095616
2.602223 98.11271 46.54743 -2.853743 0.7284888 3.625651 8.525364 -21.04417 4.017216 -0 17.63566 -0 -11.15603 -5.289213 -2.367571 -3.464761 10.09306 -12.13291 -0 44.4637 -0 -5.631303 -9.236749 10.0437 1.867485 -1.909636 3.296788 2.239068 9.700542 -7.993522 1.202117 21.22628 7.067362 2.798 -24.92705 8.985378 2.257901 -16.40556 10.77313 92.39673 30.49943 -24.02692 -0 0 6.949831 -12.32729 10.81115 7.043222 4.677643 -22.31099 -2.570454 -89.35666 24.94673 17.51381 0 0 -23.48286 6.421901 13.85439 7.99247
2.82877 99.23618 52.45502 -2.073841 -1.069451 3.196607 7.652909 -15.55298 3.807766 -0 17.39998 -0 -11.35214 -7.248274 -2.799178 -3.544708 5.137473 -11.70597 -0 53.3475 -0 -5.525534 -7.338188 10.84403 1.458422 -1.372327 4.185701 1.781018 10.06232 -7.240828 1.548711 22.04914 6.478758 2.481425 -23.94347 8.838519 2.089034 -16.46826 10.79509 92.12433 30.73306 -22.69675 -0 0 7.066489 -12.9675 11.46665 7.36114 4.074954 -21.68219 -2.624135 -89.72841 25.45355 18.19882 0 0 -22.06253 5.8045 14.33193 8.759916
2.960245 100.363 58.0669 -1.1898 -3.094196 2.6886 6.753026 -9.959202 3.390461 -0 16.23115 -0 -11.30812 -8.64171 -3.26275 -3.374553 0.1505021 -10.8831 -0 58.25109 -0 -5.12297 -6.511162 12.16058 0.8921774 -0.7808487 4.893659 1.267058 10.38943 -6.454021 1.943833 22.8664 5.740749 2.045064 -22.88298 8.620006 1.504999 -16.85854 10.78542 91.77487 30.19174 -20.84906 -0 0 7.44519 -14.10165 12.03262 7.965576 3.675959 -21.1205 -2.778647 -89.83628 25.60443 18.47512 0 0 -20.77214 5.296899 14.74208 9.170635
3.006286 101.3174 63.39844 -0.478301 -4.891916 2.179757 6.093743 -4.453105 2.987015 -0 14.67514 -0 -11.07172 -9.895295 -3.592031 -2.868389 -4.941371 -9.867703 -0 59.18799 -0 -4.494041 -6.21275 13.71011 0.3861785 -0.2363407 5.444261 0.7918024 10.6689 -5.72424 2.275008 23.48336 5.005255 1.543855 -22.02399 8.388352 0.7518121 -17.66729 10.79915 91.20992 29.34431 -18.57487 -0 0 8.42151 -15.43345 12.54379 8.876123 3.411516 -20.52328 -2.902466 -90.09229 25.45584 19.09476 0 0 -19.32796 4.832476 15.02088 9.44943
3.01797 101.9341 68.4977 -0.04008473 -6.213341 1.684939 5.702424 0.8495117 2.612337 -0 12.87548 -0 -10.65554 -11.26971 -3.672706 -2.008099 -10.09281 -8.726138 -0 56.1958 -0 -3.712843 -6.165347 15.3168 0.002584387 0.2151683 5.853137 0.4163428 10.86058 -5.097934 2.473003 23.83058 4.366865 1.022227 -21.45924 8.157976 -0.001502982 -18.86452 10.83536 90.32891 28.50906 -15.93835 -0 0 10.06744 -16.81957 12.99668 10.10243 3.262389 -19.86083 -2.898801 -90.61125 25.05895 20.27356 0 0 -17.64395 4.407324 15.1122 9.658548
3.065554 102.0825 73.44452 0.08465758 -6.852845 1.19957 5.542028 5.733265 2.229022 -0 10.8733 -0 -10.10843 -12.88571 -3.408798 -0.8373326 -15.09697 -7.519885 -0 49.48745 -0 -2.818461 -6.196734 16.80048 -0.2361814 0.5056353 6.133454 0.1867157 10.93202 -4.617729 2.495842 23.88283 3.903429 0.514621 -21.24 7.953967 -0.6402434 -20.36445 10.87735 89.10328 27.92936 -13.07626 -0 0 12.2859 -18.18421 13.39369 11.64889 3.208136 -19.1652 -2.698224 -91.36177 24.45429 22.01137 0 0 -15.83609 4.051524 15.00955 9.818986
3.211467 101.6705 78.34671 -0.06272953 -6.802123 0.7197568 5.523462 10.02797 1.775464 -0 8.737391 -0 -9.484135 -14.74639 -2.810399 0.5147588 -19.56438 -6.329435 -0 39.77333 -0 -1.901805 -6.236604 18.07354 -0.3527237 0.5954104 6.28068 0.113756 10.83249 -4.289302 2.35546 23.71022 3.645876 0.05925636 -21.29853 7.793469 -1.139105 -21.96962 10.87383 87.59765 27.64854 -10.16643 -0 0 14.78779 -19.47153 13.64564 13.40595 3.245996 -18.47513 -2.291839 -92.19881 23.71518 24.0013 0 0 -14.03062 3.800888 14.74496 9.880195
3.490592 100.6751 83.32014 -0.3784276 -6.233433 0.2434631 5.535781 13.63492 1.220536 -0 6.677505 -0 -8.856554 -16.67622 -1.978313 1.817202 -23.09639 -5.303968 -0 28.55864 -0 -1.120284 -6.258259 19.10853 -0.3935992 0.4939341 6.305734 0.1617286 10.53259 -4.074143 2.11344 23.44276 3.589593 -0.2812004 -21.48836 7.686424 -1.516329 -23.4085 10.77171 85.97254 27.5901 -7.443295 -0 0 17.17998 -20.6159 13.62938 15.14118 3.379424 -17.8222 -1.740976 -92.983 22.96543 25.8376 0 0 -12.28844 3.658859 14.38515 9.806876
3.902217 99.15842 88.47145 -0.7208458 -5.497914 -0.2425506 5.467195 16.60186 0.5838187 -0 5.112485 -0 -8.305683 -18.33084 -1.099356 2.783465 -25.41336 -4.645358 -0 17.86254 -0 -0.6940771 -6.275655 19.95728 -0.413188 0.2777778 6.234141 0.2460719 10.03604 -3.882266 1.870756 23.24104 3.692241 -0.4302632 -21.60807 7.630937 -1.826616 -24.40544 10.52767 84.46311 27.54122 -5.132751 -0 0 19.09986 -21.53889 13.21312 16.53614 3.61638 -17.19608 -1.173478 -93.66501 22.35404 27.16672 0 0 -10.493 3.572182 14.01072 9.614572
4.421 97.27134 93.89207 -0.9645124 -4.956939 -0.7638465 5.223663 19.06253 -0.06572771 -0 4.585319 -0 -7.909179 -19.27808 -0.3513463 3.176829 -26.45582 -4.534715 -0 9.483674 -0 -0.8046667 -6.318778 20.68611 -0.4567911 0.04977008 6.104619 0.2685607 9.394339 -3.611688 1.724138 23.22215 3.898848 -0.3290738 -21.49961 7.620501 -2.108297 -24.78907 10.13514 83.29023 27.28646 -3.386296 -0 0 20.34669 -22.1894 12.34138 17.34381 3.950871 -16.55874 -0.724185 -94.29254 21.98867 27.85152 0 0 -8.440506 3.462158 13.68337 9.383874
5.016355 95.23441 99.65994 -1.037698 -4.824293 -1.333628 4.733557 21.11712 -0.6492559 -0 5.597856 -0 -7.740143 -19.08348 0.191424 2.896103 -26.33237 -5.052793 -0 4.360137 -0 -1.481333 -6.415475 21.31414 -0.5562482 -0.1222663 5.953589 0.1584525 8.705572 -3.199843 1.727713 23.4155 4.165876 0.0368759 -21.1217 7.649403 -2.35451 -24.54761 9.634447 82.58829 26.72912 -2.25229 -0 0 20.89262 -22.59759 11.0751 17.51791 4.35182 -15.89371 -0.4826453 -94.92545 21.87712 27.97481 0 0 -6.020252 3.295631 13.43525 9.200891
